<?xml version="1.0" standalone="no"?>
<!DOCTYPE svg PUBLIC "-//W3C//DTD SVG 20010904//EN"
 "http://www.w3.org/TR/2001/REC-SVG-20010904/DTD/svg10.dtd">
<svg version="1.0" xmlns="http://www.w3.org/2000/svg"
 width="592.000000pt" height="196.000000pt" viewBox="0 0 592.000000 196.000000"
 preserveAspectRatio="xMidYMid meet">
<metadata>
Created by potrace 1.15, written by Peter Selinger 2001-2017
</metadata>
<g transform="translate(0.000000,196.000000) scale(0.100000,-0.100000)"
fill="#000000" stroke="none">
<path d="M0 1240 l0 -720 720 0 720 0 0 720 0 720 -720 0 -720 0 0 -720z m884
624 c214 -55 411 -253 461 -465 19 -82 19 -236 0 -318 -39 -166 -171 -329
-334 -415 -92 -48 -171 -66 -287 -66 -194 0 -316 51 -454 190 -138 137 -190
260 -190 450 0 190 52 313 190 450 91 92 170 141 275 171 80 23 255 25 339 3z"/>
</g>
</svg>
